<?xml version="1.0" encoding="utf-8"?>
<!-- Generator: Adobe Illustrator 22.0.0, SVG Export Plug-In . SVG Version: 6.00 Build 0)  -->
<svg version="1.1" id="图层_1" xmlns="http://www.w3.org/2000/svg" xmlns:xlink="http://www.w3.org/1999/xlink" x="0px" y="0px"
	 viewBox="0 0 25 25" style="enable-background:new 0 0 25 25;" xml:space="preserve">
<style type="text/css">
	.st0{fill:#FFFFFF;}
</style>
<g>
	<path class="st0" d="M20.9,9.3L20.9,8c0-3.9-3.9-7.7-8.4-7.7S4.1,4.3,4.1,8L4.1,9.3H0.6v8.8h3.6c0.6,2.4,2.6,4.4,4.8,5.5
		c0.3,0.8,1,1.4,2,1.4h2.7c1.1,0,2-0.9,2-2c0-1.1-0.9-2-2-2H11c-0.6,0-1.1,0.3-1.5,0.6c-2-1.1-3.5-3.1-3.5-5.4l0.1-8.1
		c0-2.6,2.9-5.6,6.3-5.6c3.4,0,6.4,3,6.4,5.6l0.1,10.2h5.5V9.3H20.9z M4.1,16.1H2.8v-4.8h1.3V16.1z M22.3,16.1H21v-4.8h1.3V16.1z"/>
	<rect x="2.5" y="11.3" class="st0" width="2" height="4.9"/>
	<rect x="20.7" y="11" class="st0" width="2.2" height="5.3"/>
</g>
</svg>
