<?xml version="1.0" encoding="utf-8"?>
<!-- Generator: Adobe Illustrator 22.0.0, SVG Export Plug-In . SVG Version: 6.00 Build 0)  -->
<svg version="1.1" id="图层_1" xmlns="http://www.w3.org/2000/svg" xmlns:xlink="http://www.w3.org/1999/xlink" x="0px" y="0px"
	 viewBox="0 0 25 25" style="enable-background:new 0 0 25 25;" xml:space="preserve">
<style type="text/css">
	.st0{fill:#FFFFFF;}
</style>
<g>
	<g>
		<path class="st0" d="M5,10.8c2,3.9,5.2,7.1,9.2,9.2l3.1-3.1c0.4-0.4,0.9-0.5,1.4-0.3c1.6,0.5,3.2,0.8,5,0.8c0.8,0,1.4,0.6,1.4,1.4
			v4.8c0,0.8-0.6,1.4-1.4,1.4C10.6,25,0,14.4,0,1.4C0,0.6,0.6,0,1.4,0h4.9C7,0,7.6,0.6,7.6,1.4c0,1.7,0.3,3.4,0.8,5
			c0.2,0.5,0,1-0.3,1.4L5,10.8z M5,10.8"/>
	</g>
</g>
</svg>
